<?xml version="1.0" standalone="no"?>
<!DOCTYPE svg PUBLIC "-//W3C//DTD SVG 20010904//EN"
 "http://www.w3.org/TR/2001/REC-SVG-20010904/DTD/svg10.dtd">
<svg version="1.0" xmlns="http://www.w3.org/2000/svg"
 width="500.000000pt" height="500.000000pt" viewBox="0 0 500.000000 500.000000"
 preserveAspectRatio="xMidYMid meet">
<metadata>
Created by potrace 1.14, written by Peter Selinger 2001-2017
</metadata>
<g transform="translate(0.000000,500.000000) scale(0.100000,-0.100000)"
fill="#000000" stroke="none">
<path d="M2387 4614 c-1 -1 -38 -4 -82 -7 -44 -4 -89 -8 -100 -10 -11 -3 -42
-8 -70 -11 -77 -11 -269 -64 -375 -103 -424 -159 -785 -447 -1034 -827 -183
-277 -303 -613 -334 -931 -13 -138 -6 -451 13 -545 3 -14 10 -52 16 -85 23
-127 96 -371 122 -402 5 -7 7 -13 3 -13 -9 0 114 -240 162 -315 41 -63 121
-171 184 -248 47 -58 203 -210 277 -269 219 -177 496 -319 766 -393 71 -19
143 -37 160 -39 36 -5 88 -14 130 -22 17 -4 125 -8 240 -10 238 -4 380 12 583
66 300 80 589 232 827 434 402 342 675 850 732 1362 10 89 10 389 0 479 -90
818 -638 1506 -1417 1778 -130 45 -293 81 -465 103 -38 5 -333 12 -338 8z
m283 -298 c217 -19 429 -79 625 -176 133 -66 157 -80 230 -129 447 -308 730
-780 791 -1321 12 -106 11 -295 -2 -404 -16 -128 -17 -133 -48 -252 -120 -452
-398 -829 -801 -1086 -210 -134 -515 -240 -760 -264 -141 -14 -433 -7 -496 12
-10 3 -30 6 -45 8 -152 20 -381 106 -602 227 -140 76 -395 305 -509 456 -82
110 -200 300 -190 309 1 1 29 -2 62 -7 76 -13 120 -40 142 -90 12 -28 25 -41
43 -45 14 -2 39 -10 55 -16 17 -6 73 -12 125 -13 81 -2 103 -6 151 -29 52 -26
58 -27 85 -13 50 25 143 42 179 33 13 -3 26 -14 30 -25 3 -10 25 -29 49 -42
40 -21 47 -22 84 -10 21 7 61 14 88 15 27 2 60 6 74 10 88 25 243 7 303 -36
16 -12 37 -18 50 -15 12 2 76 18 142 35 226 58 378 62 546 13 l66 -19 66 29
c93 41 179 61 266 61 56 1 83 5 101 18 32 22 160 86 270 135 191 85 290 165
290 234 0 19 -3 18 -31 -13 -17 -20 -58 -49 -92 -66 -60 -28 -227 -74 -227
-61 0 3 16 17 36 30 93 64 163 180 169 278 12 222 -173 386 -383 340 -32 -7
-33 -6 -17 15 19 28 19 80 1 116 -14 27 -139 103 -613 373 -100 57 -183 107
-183 112 0 4 24 7 54 7 41 0 61 -6 87 -25 76 -55 123 -64 173 -32 19 13 25 12
56 -9 49 -34 96 -30 138 13 7 7 21 13 30 13 9 0 28 9 41 19 l24 18 -55 -1
c-39 -1 -62 -7 -76 -19 -13 -12 -32 -17 -53 -15 -33 3 -34 4 -31 46 4 47 -9
55 -33 18 -25 -38 -89 -55 -128 -35 -19 11 -18 13 18 30 22 11 42 25 47 32 14
23 8 82 -16 140 -13 31 -20 57 -16 57 14 0 54 -53 74 -97 16 -36 21 -41 37
-32 16 8 25 3 52 -25 23 -26 36 -33 47 -26 20 13 -4 56 -42 72 -17 8 -40 34
-58 65 -77 136 -273 266 -473 313 -91 22 -259 29 -362 16 -71 -9 -243 -49
-301 -69 -39 -15 -43 -14 -83 10 -68 40 -98 45 -146 24 -51 -22 -75 -68 -75
-140 0 -28 -4 -51 -8 -51 -5 0 -45 -27 -88 -59 -136 -102 -264 -236 -351 -366
-114 -170 -228 -467 -339 -884 -51 -190 -52 -206 -23 -208 53 -4 121 -37 165
-79 25 -25 44 -48 41 -50 -3 -3 -27 2 -54 11 -81 28 -193 27 -193 -1 0 -26
-16 -14 -34 24 -49 101 -116 318 -131 427 -3 22 -8 46 -10 53 -6 18 -19 215
-18 292 0 73 10 210 18 255 41 215 86 357 165 520 229 469 648 822 1139 960
47 13 100 26 116 29 108 20 148 26 215 32 41 3 76 7 77 8 5 4 191 -2 263 -8z
m-75 -810 c64 -13 202 -61 240 -84 44 -27 105 -81 105 -94 0 -4 -21 6 -46 22
-79 50 -137 64 -254 64 -58 0 -121 -4 -140 -8 -47 -9 -159 -46 -192 -63 -25
-12 -31 -11 -53 3 -21 14 -23 19 -13 33 11 14 11 14 -2 5 -8 -5 -19 -10 -25
-10 -14 1 -122 63 -129 75 -7 11 62 36 155 55 63 14 288 15 354 2z m-927 -338
c-121 -180 -168 -334 -168 -548 -1 -181 60 -380 167 -548 29 -46 31 -52 11
-38 -45 32 -151 142 -188 196 -99 145 -134 258 -134 430 0 114 26 213 84 310
38 65 44 73 113 149 43 48 158 143 165 136 3 -2 -20 -42 -50 -87z m1007 -12
c-39 -18 -54 -20 -68 -12 -16 10 -13 12 20 23 21 6 52 12 68 12 27 0 26 -2
-20 -23z m-952 -394 c-3 -441 -3 -438 -12 -422 -35 61 -59 363 -40 496 14 93
40 204 47 204 4 0 6 -125 5 -278z m2122 -437 c64 -64 94 -126 100 -207 l4 -63
-12 55 c-27 114 -96 206 -192 256 -30 16 -55 32 -55 35 0 3 24 -2 52 -10 38
-12 67 -30 103 -66z m-393 10 c-11 -14 -19 -33 -17 -43 2 -9 4 -20 4 -24 1 -5
19 10 40 31 34 34 44 39 80 37 56 -3 74 -24 73 -81 -1 -130 -165 -207 -360
-170 -79 16 -164 47 -161 61 1 7 339 208 357 213 2 1 -5 -10 -16 -24z m328
-61 c60 -69 75 -129 52 -209 -24 -85 -88 -155 -177 -195 -71 -32 -92 -32 -40
-1 89 54 147 122 170 201 6 19 0 16 -23 -16 -134 -182 -418 -237 -842 -163
-63 11 -132 25 -153 31 l-39 12 47 25 c26 14 55 31 64 36 9 6 46 27 83 48 l67
38 65 -20 c161 -50 338 -65 458 -40 161 34 255 132 226 237 -5 20 -14 41 -19
47 -5 5 -9 13 -9 17 0 15 36 -10 70 -48z m-2320 -394 c20 -19 178 -130 185
-130 3 0 21 -10 40 -22 26 -17 35 -30 35 -50 0 -16 -3 -28 -7 -28 -3 0 -49 29
-102 64 -134 90 -198 153 -296 291 -21 30 -7 20 55 -40 46 -44 87 -82 90 -85z
m1120 -67 c139 -63 198 -79 450 -118 14 -2 54 -6 90 -10 36 -3 83 -8 104 -11
95 -13 431 -4 456 11 6 4 10 2 10 -4 0 -5 -33 -15 -72 -21 -40 -7 -82 -14 -93
-16 -11 -3 -38 -7 -60 -10 -22 -3 -51 -7 -65 -10 -201 -32 -594 -17 -785 30
-57 14 -81 21 -153 44 -47 14 -79 29 -74 34 13 13 156 96 162 94 3 -1 16 -7
30 -13z m-1169 -174 c41 -14 101 -57 95 -68 -3 -5 -31 -4 -63 1 -101 15 -117
17 -183 24 -62 6 -117 21 -109 28 2 2 29 7 58 10 30 4 57 9 60 11 9 9 109 5
142 -6z m762 -105 c38 -9 64 -20 58 -24 -10 -6 -122 12 -159 25 -19 7 -3 27
16 21 10 -3 48 -13 85 -22z"/>
</g>
</svg>
